<?xml version="1.0" encoding="UTF-8" standalone="no"?>
<!-- Created with Inkscape (http://www.inkscape.org/) -->

<svg
   width="138.85545mm"
   height="29.668346mm"
   viewBox="0 0 138.85545 29.668346"
   version="1.1"
   id="svg1"
   xml:space="preserve"
   xmlns:xlink="http://www.w3.org/1999/xlink"
   xmlns="http://www.w3.org/2000/svg"
   xmlns:svg="http://www.w3.org/2000/svg"><defs
     id="defs1"><linearGradient
       id="linearGradient19"><stop
         style="stop-color:#1342a4;stop-opacity:1;"
         offset="0.69744527"
         id="stop19" /><stop
         style="stop-color:#0f317a;stop-opacity:1;"
         offset="1"
         id="stop20" /></linearGradient><radialGradient
       xlink:href="#linearGradient19"
       id="radialGradient20-8"
       cx="118.10969"
       cy="-147.74928"
       fx="118.10969"
       fy="-147.74928"
       r="30.761606"
       gradientTransform="matrix(1,0,0,0.75654476,0,-35.970336)"
       gradientUnits="userSpaceOnUse" /></defs><g
     id="layer1"
     transform="translate(-53.445829,35.45417)"><text
       xml:space="preserve"
       style="font-style:normal;font-variant:normal;font-weight:800;font-stretch:normal;font-size:25.4px;line-height:1.25;font-family:'JetBrains Mono';-inkscape-font-specification:'JetBrains Mono, Ultra-Bold';font-variant-ligatures:normal;font-variant-caps:normal;font-variant-numeric:normal;font-variant-east-asian:normal;text-align:start;text-anchor:start;stroke-width:0.265;stroke-dasharray:none"
       x="87.297646"
       y="-10.847917"
       id="text2240"><tspan
         x="87.297646"
         y="-10.847917"
         style="font-style:normal;font-variant:normal;font-weight:800;font-stretch:normal;font-size:25.4px;font-family:'JetBrains Mono';-inkscape-font-specification:'JetBrains Mono, Ultra-Bold';font-variant-ligatures:normal;font-variant-caps:normal;font-variant-numeric:normal;font-variant-east-asian:normal;text-align:start;text-anchor:start;stroke-width:0.265;stroke-dasharray:none"
         id="tspan2241">Concord</tspan></text><g
       id="g17-0-2"
       transform="matrix(0.445019,0,0,0.445019,16.957949,49.608693)"><path
         style="fill:#2f83e5;fill-opacity:1"
         d="m 143.37115,-170.67463 -1.12289,-0.70884 c -0.61758,-0.38987 -2.19516,-1.149 -3.50573,-1.68696 -5.91815,-2.42929 -9.3574,-4.47145 -11.69746,-6.94573 -1.85332,-1.9596 -2.32292,-3.1113 -1.8499,-4.53691 0.9159,-2.76039 4.34152,-3.05481 8.70527,-0.74818 1.51343,0.79999 5.26588,4.34768 6.36853,6.02103 1.07772,1.63551 2.45528,4.85815 2.82749,6.61458 0.26654,1.25773 0.57334,2.04989 1.26641,3.17987 0.40475,0.6599 -0.46585,0.70819 -0.99172,-1.18886 z m -58.447358,19.28618 c -2.021994,-1.23269 -2.937971,-3.35741 -2.93202,-6.80118 0.0045,-2.60757 0.335282,-3.78929 1.538456,-5.49624 1.006311,-1.42767 1.845662,-1.79774 3.667339,-1.61693 1.705392,0.16926 2.935619,1.19205 3.819508,3.17549 0.873955,1.96113 0.879967,5.8139 0.01204,7.71792 -1.428883,3.13463 -3.907288,4.36096 -6.105327,3.02094 z m 4.83972,-16.88637 c -1.525494,-0.93022 -2.087815,-2.04462 -2.082071,-4.12624 0.0044,-1.58762 0.130229,-2.08408 0.881345,-3.47681 2.179834,-4.04188 8.219556,-9.57686 11.762864,-10.77985 1.57156,-0.53356 2.53954,-0.54002 3.81564,-0.0255 2.28148,0.91991 2.84926,3.65356 1.36594,6.57651 -0.45223,0.89112 -0.89947,1.67976 -0.99387,1.75252 -0.0944,0.0728 -0.58761,0.69533 -1.09601,1.38349 -1.74965,2.36832 -7.432341,7.69035 -9.046367,8.47224 -1.788773,0.86654 -3.423059,0.94586 -4.607471,0.22363 z m 23.048238,-14.28997 c -2.53223,-0.70323 -4.36563,-2.42832 -4.36563,-4.10773 0,-1.55573 1.08783,-2.89192 3.175,-3.89989 0.99192,-0.47903 1.65428,-0.57447 3.96875,-0.57188 2.40828,0.003 2.97572,0.0928 4.2624,0.67711 3.85855,1.75214 3.8816,5.53438 0.0448,7.3562 -0.97732,0.46406 -1.83543,0.61931 -3.77807,0.68353 -1.38245,0.0457 -2.87073,-0.0161 -3.30729,-0.13734 z"
         id="path18-6-3" /><path
         style="fill:url(#radialGradient20-8);fill-opacity:1"
         d="m 111.97964,-124.63745 c -4.68773,-0.99945 -6.57983,-4.69694 -3.7538,-7.33558 1.31503,-1.22783 3.08494,-1.78384 5.64424,-1.7731 3.92411,0.0165 6.55263,1.44531 7.24028,3.93576 0.51632,1.86997 -0.75851,3.84732 -3.11532,4.83206 -1.13357,0.47364 -4.49836,0.6643 -6.0154,0.34086 z m 13.39968,-4.04121 c -1.91478,-1.30701 -2.35399,-3.89595 -1.03904,-6.12462 0.94012,-1.59338 3.61879,-3.59948 7.28,-5.45212 4.05719,-2.053 5.05368,-2.75016 6.44273,-4.50744 1.25128,-1.58299 1.66653,-2.84572 2.51972,-7.66218 0.34799,-1.96453 1.13255,-5.715 1.74346,-8.33437 0.90656,-3.88702 1.11483,-5.26802 1.13296,-7.51246 l 0.0222,-2.74996 1.13154,1.24982 c 3.83254,4.23317 5.39615,13.24359 3.36543,19.39348 -1.58559,4.80185 -5.93366,11.89872 -9.71099,15.85017 -2.38335,2.49322 -6.03297,5.21018 -8.0646,6.0037 -1.65507,0.64644 -3.74868,0.57959 -4.82342,-0.15402 z m -29.835448,-4.41333 c -2.2876,-0.57673 -5.116609,-3.38261 -6.82109,-6.76532 -1.521785,-3.02013 -1.732936,-4.53575 -0.866229,-6.21771 0.796201,-1.54512 2.48706,-2.48837 4.038062,-2.25264 3.824638,0.58131 8.825455,6.52634 9.088915,10.80502 0.0849,1.37963 0.004,1.77449 -0.51788,2.5358 -1.215913,1.77271 -2.874077,2.41109 -4.921778,1.89485 z"
         id="path17-2-7" /></g></g></svg>
